<svg width="252" height="40" viewBox="0 0 252 40" fill="none" xmlns="http://www.w3.org/2000/svg">
<path d="M70.3428 20.0168C69.7372 20.7552 68.8512 21.3483 67.6847 21.7958C66.5408 22.221 65.1949 22.4336 63.6472 22.4336H59.7442V31.765H55V8.33566H63.6472C66.3613 8.33566 68.4474 9.01818 69.9054 10.3832C71.3859 11.7259 72.1261 13.3147 72.1261 15.1497C72.1261 16.9846 71.5317 18.607 70.3428 20.0168ZM59.7442 18.8084H63.6472C64.836 18.8084 65.7445 18.5063 66.3725 17.9021C67.0006 17.2755 67.3146 16.4364 67.3146 15.3846C67.3146 14.3329 67.0006 13.5049 66.3725 12.9007C65.7445 12.2741 64.836 11.9608 63.6472 11.9608H59.7442V18.8084Z" fill="white"/>
<path d="M91.5817 25.5888C92.9051 24.179 93.5668 22.3105 93.5668 19.9832C93.5668 17.6559 92.9051 15.7986 91.5817 14.4112C90.2583 13.0238 88.5311 12.3301 86.4001 12.3301C84.2692 12.3301 82.5308 13.035 81.1849 14.4448C79.8615 15.8322 79.1998 17.6895 79.1998 20.0168C79.1998 22.3217 79.8615 24.179 81.1849 25.5888C82.5308 26.9762 84.2692 27.6699 86.4001 27.6699C88.5311 27.6699 90.2583 26.9762 91.5817 25.5888ZM86.4001 32C83.013 32 80.1643 30.8699 77.8539 28.6098C75.5435 26.3497 74.3883 23.4853 74.3883 20.0168C74.3883 16.5259 75.5435 13.6503 77.8539 11.3902C80.1867 9.13007 83.0355 8 86.4001 8C89.7872 8 92.6359 9.13007 94.9463 11.3902C97.2567 13.6503 98.4119 16.5259 98.4119 20.0168C98.4119 23.4853 97.2567 26.3497 94.9463 28.6098C92.6359 30.8699 89.7872 32 86.4001 32Z" fill="white"/>
<path d="M106.895 22.4336V31.765H102.151V8.33566H110.798C113.512 8.33566 115.599 9.01818 117.057 10.3832C118.537 11.7259 119.277 13.393 119.277 15.3846C119.277 16.8615 118.829 18.2378 117.931 19.5133C117.034 20.7888 115.621 21.6615 113.692 22.1315L119.681 31.765H114.062L108.443 22.4336H106.895ZM106.895 11.9608V18.8084H110.798C111.987 18.8084 112.896 18.5063 113.524 17.9021C114.152 17.2755 114.466 16.4364 114.466 15.3846C114.466 14.3329 114.152 13.5049 113.524 12.9007C112.896 12.2741 111.987 11.9608 110.798 11.9608H106.895Z" fill="white"/>
<path d="M122.622 11.9608V8.33566H140.017V11.9608H133.658V31.765H128.948V11.9608H122.622Z" fill="white"/>
<path d="M159.532 25.5888C160.855 24.179 161.517 22.3105 161.517 19.9832C161.517 17.6559 160.855 15.7986 159.532 14.4112C158.208 13.0238 156.481 12.3301 154.35 12.3301C152.219 12.3301 150.481 13.035 149.135 14.4448C147.812 15.8322 147.15 17.6895 147.15 20.0168C147.15 22.3217 147.812 24.179 149.135 25.5888C150.481 26.9762 152.219 27.6699 154.35 27.6699C156.481 27.6699 158.208 26.9762 159.532 25.5888ZM154.35 32C150.963 32 148.115 30.8699 145.804 28.6098C143.494 26.3497 142.339 23.4853 142.339 20.0168C142.339 16.5259 143.494 13.6503 145.804 11.3902C148.137 9.13007 150.986 8 154.35 8C157.737 8 160.586 9.13007 162.897 11.3902C165.207 13.6503 166.362 16.5259 166.362 20.0168C166.362 23.4853 165.207 26.3497 162.897 28.6098C160.586 30.8699 157.737 32 154.35 32Z" fill="white"/>
<path d="M177.706 11.793C176.763 11.793 175.99 12.0392 175.384 12.5315C174.801 13.0014 174.509 13.6615 174.509 14.5119C174.509 15.3622 174.722 16.0336 175.148 16.5259C175.597 16.9958 176.18 17.365 176.898 17.6336C177.616 17.8797 178.401 18.1035 179.253 18.3049C180.106 18.5063 180.958 18.7524 181.81 19.0434C182.663 19.3343 183.448 19.6923 184.166 20.1175C184.883 20.5427 185.455 21.1692 185.882 21.9972C186.33 22.8028 186.555 23.7874 186.555 24.951C186.555 26.8755 185.781 28.5315 184.233 29.9189C182.708 31.3063 180.666 32 178.109 32C175.575 32 173.522 31.407 171.952 30.221C170.382 29.0126 169.597 27.3231 169.597 25.1524H174.644C174.823 27.2112 176.001 28.2406 178.177 28.2406C179.253 28.2406 180.106 27.9608 180.734 27.4014C181.362 26.842 181.676 26.1035 181.676 25.186C181.676 24.2462 181.261 23.5077 180.431 22.9706C179.601 22.4336 178.592 22.0308 177.403 21.7622C176.236 21.4937 175.059 21.1692 173.87 20.7888C172.681 20.4084 171.672 19.7483 170.842 18.8084C170.012 17.8462 169.597 16.5818 169.597 15.0154C169.597 12.8895 170.371 11.1888 171.918 9.91329C173.466 8.63776 175.451 8 177.874 8C180.319 8 182.281 8.55944 183.762 9.67832C185.242 10.7748 186.05 12.4531 186.184 14.7133H181.003C180.913 13.8182 180.577 13.1133 179.993 12.5986C179.41 12.0615 178.648 11.793 177.706 11.793Z" fill="white"/>
<path d="M189.718 11.9608V8.33566H207.113V11.9608H200.754V31.765H196.044V11.9608H189.718Z" fill="white"/>
<path d="M226.157 31.765L224.643 27.3678H215.491L213.977 31.765H208.963L217.274 8.26853H222.893L231.17 31.765H226.157ZM216.736 23.7427H223.431L220.067 13.9748L216.736 23.7427Z" fill="white"/>
<path d="M239.214 22.4336V31.765H234.47V8.33566H243.117C245.831 8.33566 247.918 9.01818 249.376 10.3832C250.856 11.7259 251.596 13.393 251.596 15.3846C251.596 16.8615 251.148 18.2378 250.25 19.5133C249.353 20.7888 247.94 21.6615 246.011 22.1315L252 31.765H246.381L240.762 22.4336H239.214ZM239.214 11.9608V18.8084H243.117C244.306 18.8084 245.215 18.5063 245.843 17.9021C246.471 17.2755 246.785 16.4364 246.785 15.3846C246.785 14.3329 246.471 13.5049 245.843 12.9007C245.215 12.2741 244.306 11.9608 243.117 11.9608H239.214Z" fill="white"/>
<path d="M40 20C40 31.0457 31.0457 40 20 40C8.95431 40 0 31.0457 0 20C0 8.95431 8.95431 0 20 0C31.0457 0 40 8.95431 40 20Z" fill="white"/>
<path d="M24.1621 27L23.003 23.8186H15.997L14.8379 27H11L17.3621 10H21.6636L28 27H24.1621ZM16.95 21.1957H22.0758L19.5 14.1286L16.95 21.1957Z" fill="#333333"/>
</svg>
