<svg width="213" height="55" viewBox="0 0 213 55" fill="none" xmlns="http://www.w3.org/2000/svg">
<path d="M63.3331 17.3078H68.4864V38.1562H63.3331V17.3078ZM70.5305 30.2843C70.5305 25.1281 73.6911 22.0515 78.5695 22.0515C83.4479 22.0515 86.6085 25.1281 86.6085 30.2843C86.6085 35.4406 83.5166 38.5343 78.5695 38.5343C73.6224 38.5343 70.5305 35.5265 70.5305 30.2843ZM81.4381 30.2843C81.4381 27.4484 80.3216 25.7812 78.5695 25.7812C76.8174 25.7812 75.7181 27.5 75.7181 30.2843C75.7181 33.0687 76.8002 34.7531 78.5695 34.7531C80.3388 34.7531 81.4381 33.1718 81.4381 30.3015V30.2843ZM88.5496 39.1703H93.4967C93.7322 39.6936 94.1302 40.1269 94.6316 40.4057C95.133 40.6843 95.711 40.7936 96.2794 40.7171C98.2376 40.7171 99.2683 39.6515 99.2683 38.1047V35.2171H99.1652C98.7547 36.1021 98.0884 36.8436 97.2525 37.3462C96.4167 37.8486 95.4494 38.0888 94.4758 38.0359C90.7139 38.0359 88.2232 35.1656 88.2232 30.2328C88.2232 25.3 90.5937 22.189 94.5445 22.189C95.5487 22.1497 96.5409 22.4183 97.3882 22.9589C98.2356 23.4996 98.8976 24.2864 99.2855 25.214V22.3437H104.439V37.9843C104.439 41.7484 101.123 44.0859 96.2279 44.0859C91.6759 44.0859 88.8416 42.0406 88.5496 39.1875V39.1703ZM99.2855 30.2672C99.2855 27.7578 98.1346 26.1765 96.3138 26.1765C94.493 26.1765 93.3764 27.7406 93.3764 30.2672C93.3764 32.7937 94.4758 34.2203 96.3138 34.2203C98.1518 34.2203 99.2855 32.8281 99.2855 30.2843V30.2672ZM106.38 30.2672C106.38 25.1109 109.54 22.0343 114.419 22.0343C119.297 22.0343 122.475 25.1109 122.475 30.2672C122.475 35.4234 119.383 38.5171 114.419 38.5171C109.455 38.5171 106.38 35.5265 106.38 30.2843V30.2672ZM117.287 30.2672C117.287 27.4312 116.171 25.764 114.419 25.764C112.667 25.764 111.653 27.5 111.653 30.3015C111.653 33.1031 112.735 34.7703 114.487 34.7703C116.24 34.7703 117.287 33.1718 117.287 30.3015V30.2672ZM124.433 18.5968C124.42 18.0762 124.561 17.5634 124.839 17.1232C125.117 16.683 125.52 16.3354 125.996 16.1244C126.471 15.9134 126.999 15.8486 127.512 15.938C128.025 16.0275 128.499 16.2673 128.876 16.627C129.252 16.9867 129.513 17.4501 129.626 17.9585C129.739 18.4669 129.698 18.9973 129.509 19.4827C129.321 19.9679 128.992 20.3862 128.565 20.6844C128.139 20.9826 127.633 21.1475 127.113 21.1578C126.768 21.1815 126.422 21.1335 126.096 21.017C125.771 20.9005 125.473 20.7179 125.221 20.4806C124.969 20.2434 124.77 19.9565 124.634 19.6382C124.498 19.3201 124.43 18.9772 124.433 18.6312V18.5968ZM124.433 22.3781H129.586V38.1562H124.433V22.3781ZM148.293 30.2672C148.293 35.4234 146.008 38.3625 142.092 38.3625C141.087 38.4269 140.088 38.1813 139.227 37.6588C138.367 37.1361 137.688 36.3618 137.282 35.4406H137.179V43.2093H132.026V22.3437H137.179V25.1625H137.282C137.669 24.2259 138.335 23.4315 139.19 22.8872C140.044 22.3429 141.045 22.0751 142.057 22.1203C146.008 22.189 148.361 25.1453 148.361 30.3015L148.293 30.2672ZM143.139 30.2672C143.139 27.7578 141.989 26.1593 140.185 26.1593C138.381 26.1593 137.23 27.775 137.213 30.2672C137.196 32.7593 138.381 34.3578 140.185 34.3578C141.989 34.3578 143.139 32.7937 143.139 30.3015V30.2672ZM157.139 22.0172C161.416 22.0172 164.01 24.0453 164.13 27.2937H159.441C159.441 26.1765 158.513 25.4718 157.087 25.4718C155.662 25.4718 155.026 26.0218 155.026 26.8296C155.026 27.6375 155.593 27.8953 156.744 28.1359L160.042 28.8062C163.185 29.4765 164.525 30.7484 164.525 33.1375C164.525 36.4031 161.554 38.5 157.173 38.5C152.793 38.5 149.924 36.4031 149.701 33.189H154.665C154.82 34.3578 155.748 35.0453 157.259 35.0453C158.771 35.0453 159.458 34.5468 159.458 33.7218C159.458 32.8968 158.977 32.725 157.74 32.4671L154.769 31.8312C151.694 31.1953 150.079 29.5625 150.079 27.1562C150.113 24.0625 152.879 22.0515 157.139 22.0515V22.0172ZM181.72 38.1218H176.756V35.1828H176.653C176.379 36.1695 175.778 37.0332 174.947 37.6304C174.115 38.2275 173.105 38.5223 172.083 38.4656C171.3 38.5101 170.517 38.386 169.786 38.1016C169.055 37.8171 168.394 37.3792 167.847 36.817C167.3 36.2549 166.879 35.5817 166.615 34.8431C166.35 34.1046 166.247 33.3178 166.312 32.5359V22.3437H171.465V31.35C171.465 33.2234 172.427 34.2203 174.024 34.2203C174.399 34.221 174.77 34.1417 175.112 33.9876C175.452 33.8334 175.758 33.6079 176.005 33.3264C176.251 33.0447 176.436 32.7134 176.544 32.3549C176.653 31.9962 176.685 31.6184 176.635 31.2468V22.3437H181.789L181.72 38.1218ZM184.211 22.3437H189.192V25.3859H189.295C189.568 24.4122 190.157 23.5566 190.968 22.9534C191.779 22.3501 192.768 22.0328 193.778 22.0515C194.807 21.9692 195.828 22.277 196.64 22.914C197.451 23.551 197.994 24.4702 198.159 25.489H198.262C198.573 24.4593 199.219 23.5628 200.096 22.9405C200.972 22.3181 202.032 22.0053 203.106 22.0515C203.807 22.028 204.504 22.1522 205.153 22.4162C205.804 22.6801 206.39 23.078 206.876 23.5836C207.362 24.0894 207.737 24.6919 207.976 25.3517C208.213 26.0115 208.311 26.7143 208.259 27.414V38.1562H203.106V28.789C203.106 27.0703 202.333 26.2797 200.89 26.2797C200.569 26.2769 200.249 26.3432 199.955 26.4742C199.662 26.6052 199.399 26.7977 199.186 27.0388C198.973 27.28 198.813 27.5639 198.719 27.8717C198.624 28.1797 198.598 28.5042 198.64 28.8234V38.1562H193.744V28.7203C193.744 27.139 192.971 26.2797 191.563 26.2797C191.238 26.2798 190.915 26.3489 190.62 26.4825C190.322 26.6162 190.056 26.8113 189.841 27.0548C189.625 27.2984 189.463 27.585 189.366 27.896C189.269 28.2067 189.238 28.5345 189.278 28.8578V38.1562H184.125L184.211 22.3437Z" fill="#E5E5E5"/>
<path d="M48.9213 18.2532C48.0471 16.2531 46.8902 14.3893 45.4858 12.7188C43.4099 10.1756 40.8192 8.10117 37.8843 6.632C34.9494 5.16284 31.7367 4.33226 28.4578 4.19491C25.179 4.05757 21.9083 4.61657 18.8608 5.83517C15.8135 7.05374 13.0586 8.90427 10.7775 11.2649C8.49634 13.6256 6.74073 16.4429 5.62617 19.5314C4.51161 22.6198 4.06337 25.9095 4.31096 29.1837C4.55858 32.4581 5.49638 35.6428 7.06268 38.5282C8.62899 41.4138 10.7883 43.9347 13.3984 45.925C15.0732 47.2277 16.9238 48.2866 18.8952 49.0703C21.659 50.2037 24.6171 50.7874 27.6041 50.7891C33.7698 50.7755 39.6785 48.3163 44.0352 43.9507C48.3917 39.5851 50.8407 33.6693 50.8452 27.5C50.8496 24.3178 50.1947 21.1692 48.9213 18.2532ZM27.587 8.92032C30.2694 8.92005 32.9193 9.50666 35.3511 10.6391C34.7582 10.8955 34.1346 11.0745 33.496 11.1719C31.3945 11.4763 29.4478 12.4525 27.9463 13.9549C26.4448 15.4572 25.4691 17.4051 25.1649 19.5078C25.0315 20.6871 24.4954 21.7842 23.6473 22.614C22.7993 23.4438 21.6911 23.9553 20.5099 24.0625C18.4084 24.3669 16.4616 25.3432 14.9601 26.8455C13.4587 28.3479 12.483 30.2958 12.1788 32.3985C12.0758 33.5198 11.5977 34.5735 10.8218 35.3891C9.48308 32.5588 8.8817 29.4355 9.07361 26.3101C9.26551 23.1848 10.2445 20.1587 11.9194 17.5136C13.5943 14.8686 15.9107 12.6904 18.6531 11.1819C21.3955 9.67345 24.4747 8.88363 27.6041 8.88595L27.587 8.92032ZM13.3812 39.5313C13.5874 39.3422 13.7935 39.1703 13.9996 38.9641C15.5278 37.4817 16.5088 35.5247 16.7824 33.4125C16.8933 32.2252 17.4231 31.1163 18.2768 30.2844C19.0984 29.4288 20.2041 28.903 21.3859 28.8063C23.4874 28.5019 25.4341 27.5256 26.9356 26.0233C28.4371 24.5209 29.4127 22.5731 29.7169 20.4703C29.7913 19.2285 30.3238 18.0586 31.2114 17.1875C32.0533 16.3485 33.1694 15.8419 34.3549 15.7609C36.2854 15.4952 38.086 14.6364 39.5081 13.3032C41.1274 14.6473 42.4992 16.2644 43.562 18.0813C43.4967 18.1695 43.4218 18.2502 43.3386 18.3219C42.5188 19.1851 41.4144 19.7223 40.2295 19.8344C38.1258 20.1335 36.1762 21.108 34.6737 22.6112C33.1713 24.1146 32.1974 26.0654 31.8985 28.1703C31.7774 29.3535 31.2512 30.4585 30.4092 31.298C29.567 32.1376 28.4608 32.6599 27.2778 32.7766C25.1701 33.0786 23.2162 34.0529 21.7059 35.5546C20.1959 37.0565 19.21 39.0055 18.8952 41.1125C18.8028 41.9525 18.5144 42.7591 18.0535 43.4672C16.2911 42.4202 14.7126 41.0905 13.3812 39.5313ZM27.587 46.1657C25.844 46.1675 24.1092 45.9245 22.4337 45.4438C23.0069 44.3747 23.3795 43.2096 23.5331 42.0063C23.6535 40.8257 24.1772 39.7228 25.0158 38.8837C25.8544 38.0446 26.9567 37.5205 28.1366 37.4C30.2412 37.0991 32.1919 36.1244 33.6968 34.6217C35.2015 33.1191 36.1798 31.1692 36.4849 29.0641C36.6053 27.8835 37.129 26.7806 37.9676 25.9415C38.8062 25.1024 39.9085 24.5783 41.0884 24.4578C42.6722 24.2518 44.1817 23.6617 45.4858 22.7391C46.21 25.4855 46.2957 28.3613 45.7366 31.146C45.1775 33.9307 43.9881 36.5505 42.2601 38.8039C40.532 41.0572 38.3112 42.8847 35.7675 44.146C33.2241 45.4072 30.4257 46.0687 27.587 46.0797V46.1657Z" fill="#E5E5E5"/>
</svg>
