<svg width="226" height="60" viewBox="0 0 226 60" fill="none" xmlns="http://www.w3.org/2000/svg">
<path d="M65.9338 19.303H71.4297V41.5888H65.9338V19.303ZM73.6212 33.2059C73.6212 27.6859 77.0454 24.3773 82.1818 24.3773C87.3182 24.3773 90.7424 27.6859 90.7424 33.2059C90.7424 38.7259 87.438 42.0688 82.1818 42.0688C76.9256 42.0688 73.6212 38.8459 73.6212 33.2059ZM85.2979 33.2059C85.2979 30.1716 84.1165 28.3888 82.2332 28.3888C80.3498 28.3888 79.1856 30.103 79.1856 33.2059C79.1856 36.3088 80.3498 38.0059 82.2332 38.0059C84.1165 38.0059 85.3321 36.3088 85.3321 33.223L85.2979 33.2059ZM92.9339 42.7373H98.2415C98.4831 43.3094 98.9051 43.7868 99.4431 44.0962C99.981 44.4058 100.605 44.5306 101.221 44.4516C103.327 44.4516 104.422 43.3202 104.422 41.6402V38.5545H104.439C103.986 39.5153 103.252 40.3161 102.336 40.8516C101.419 41.3872 100.362 41.6321 99.303 41.5545C95.2795 41.5545 92.6086 38.4859 92.6086 33.2059C92.6086 27.9259 95.1597 24.6345 99.4571 24.6345C100.543 24.5764 101.62 24.8566 102.54 25.4369C103.46 26.0172 104.177 26.8689 104.593 27.8745H104.439V24.7716H109.884V41.4688C109.884 45.4973 106.323 48.0173 101.084 48.0173C96.3239 48.0002 93.2764 45.823 92.9682 42.7545L92.9339 42.7373ZM104.439 33.2059C104.439 30.5145 103.207 28.8173 101.255 28.8173C99.303 28.8173 98.1045 30.5316 98.1045 33.2059C98.1045 35.8802 99.2859 37.4573 101.255 37.4573C103.224 37.4573 104.439 36.0002 104.439 33.2059ZM112.058 33.2059C112.058 27.6859 115.483 24.3773 120.619 24.3773C125.755 24.3773 129.18 27.6859 129.18 33.2059C129.18 38.7259 125.858 42.0688 120.619 42.0688C115.38 42.0688 112.093 38.8459 112.093 33.2059H112.058ZM123.735 33.2059C123.735 30.1716 122.537 28.3888 120.67 28.3888C118.804 28.3888 117.623 30.103 117.623 33.2059C117.623 36.3088 118.787 38.0059 120.67 38.0059C122.554 38.0059 123.769 36.3088 123.769 33.223L123.735 33.2059ZM131.405 20.7088C131.381 20.1482 131.525 19.5933 131.819 19.1155C132.113 18.6376 132.542 18.2587 133.053 18.0274C133.564 17.796 134.132 17.723 134.684 17.8176C135.236 17.9121 135.748 18.1699 136.152 18.5578C136.557 18.946 136.837 19.4462 136.955 19.9946C137.073 20.543 137.025 21.1144 136.817 21.635C136.608 22.1558 136.249 22.6022 135.785 22.9168C135.321 23.2313 134.774 23.3997 134.213 23.4002C133.855 23.4093 133.499 23.347 133.165 23.2173C132.831 23.0873 132.526 22.8922 132.268 22.6435C132.01 22.3948 131.804 22.0972 131.662 21.7678C131.52 21.4387 131.444 21.0845 131.44 20.7259L131.405 20.7088ZM131.405 24.7545H136.97V41.6573H131.491L131.405 24.7545ZM156.984 33.2059C156.984 38.7088 154.519 41.8973 150.324 41.8973C149.25 41.9637 148.182 41.6983 147.263 41.1374C146.345 40.5763 145.621 39.7466 145.188 38.7602H145.085V47.0916H139.589V24.8059H145.051V27.823H145.154C145.571 26.8173 146.289 25.9648 147.208 25.3819C148.127 24.799 149.203 24.5141 150.29 24.5659C154.605 24.5316 157.087 27.703 157.087 33.223L156.984 33.2059ZM151.386 33.2059C151.386 30.5316 150.136 28.8002 148.201 28.8002C146.267 28.8002 145.051 30.5145 145.034 33.2059C145.017 35.8973 146.267 37.5945 148.201 37.5945C150.136 37.5945 151.488 36.0002 151.488 33.223L151.386 33.2059ZM166.367 24.3602C170.972 24.3602 173.832 26.5373 173.866 30.0345H168.849C168.849 28.8173 167.839 28.063 166.333 28.063C164.826 28.063 164.107 28.6459 164.107 29.5202C164.107 30.3945 164.74 30.6688 166.007 30.9259L169.534 31.6459C172.958 32.3659 174.328 33.7373 174.328 36.2916C174.328 39.7202 171.161 42.0516 166.452 42.0516C161.744 42.0516 158.679 39.7888 158.457 36.343H163.782C163.936 37.5945 164.929 38.3316 166.538 38.3316C168.147 38.3316 168.901 37.8173 168.901 36.9088C168.901 36.0002 168.387 35.8459 167.069 35.5716L163.884 34.903C160.58 34.2002 158.851 32.4688 158.851 29.8802C158.953 26.5202 161.83 24.3773 166.47 24.3773L166.367 24.3602ZM192.733 41.6402H187.409V38.4688H187.306C187.008 39.5266 186.359 40.4512 185.466 41.0899C184.572 41.7288 183.488 42.0437 182.392 41.983C181.565 42.01 180.74 41.8615 179.975 41.5471C179.209 41.2329 178.518 40.7599 177.948 40.1594C177.376 39.5587 176.939 38.844 176.664 38.0623C176.388 37.2806 176.28 36.4492 176.348 35.623V24.7716H181.844V34.4402C181.844 36.4288 182.889 37.5088 184.601 37.5088C185.003 37.5057 185.399 37.4164 185.763 37.247C186.128 37.0774 186.452 36.8316 186.712 36.5261C186.974 36.2206 187.167 35.8625 187.279 35.4761C187.388 35.0896 187.416 34.6838 187.357 34.2859V24.7716H192.836L192.733 41.6402ZM195.387 24.7545H200.729V28.0116H200.849C201.143 26.9681 201.777 26.0522 202.647 25.4069C203.518 24.7618 204.578 24.4238 205.66 24.4459C206.747 24.3513 207.831 24.666 208.697 25.3286C209.565 25.9912 210.154 26.9541 210.351 28.0288H210.591C210.933 26.9482 211.622 26.0112 212.551 25.3634C213.479 24.7154 214.597 24.3929 215.727 24.4459C216.479 24.4173 217.229 24.5479 217.926 24.8292C218.624 25.1104 219.254 25.536 219.776 26.0782C220.299 26.6203 220.699 27.2668 220.954 27.9751C221.211 28.6834 221.314 29.4377 221.257 30.1888V41.6573H215.727V31.5945C215.727 29.8802 214.923 28.9202 213.365 28.9202C213.019 28.9145 212.676 28.9838 212.36 29.123C212.043 29.2624 211.762 29.4686 211.533 29.7274C211.303 29.9865 211.132 30.2918 211.031 30.623C210.932 30.9542 210.904 31.303 210.95 31.6459V41.6573H205.711V31.543C205.711 29.8288 204.872 28.9202 203.366 28.9202C203.016 28.9174 202.671 28.9894 202.352 29.1314C202.032 29.2735 201.748 29.4821 201.515 29.7436C201.284 30.005 201.111 30.313 201.008 30.647C200.904 30.9811 200.873 31.3334 200.917 31.6802V41.6573H195.422L195.387 24.7545Z" fill="#E5E5E5"/>
<path d="M55.0618 20.76C55.062 17.348 54.033 14.0156 52.1096 11.1991C50.1862 8.38264 47.4579 6.21346 44.2825 4.97575C41.107 3.73802 37.6321 3.48945 34.3131 4.26257C30.994 5.0357 27.9856 6.79449 25.6818 9.30856H4.31458V54.4628H49.4289V33.36C51.1996 31.7743 52.6166 29.8325 53.5872 27.6614C54.5578 25.4902 55.0603 23.1387 55.0618 20.76ZM46.3814 20.76C46.3848 22.3949 45.9037 23.9942 44.999 25.3553C44.0941 26.7163 42.8066 27.7781 41.2989 28.406C39.7912 29.0342 38.1315 29.2003 36.5295 28.8833C34.9276 28.5665 33.4555 27.7808 32.2997 26.6259C31.1438 25.471 30.3563 23.9988 30.0364 22.3954C29.7166 20.7922 29.8791 19.1299 30.5032 17.6191C31.1272 16.1082 32.185 14.8167 33.5423 13.908C34.8999 12.9993 36.4961 12.5143 38.1289 12.5143C40.3146 12.5143 42.4111 13.3825 43.9582 14.9283C45.5054 16.4742 46.3769 18.5715 46.3814 20.76ZM40.7485 45.7714H12.995V18H21.4529C21.2895 18.9111 21.2036 19.8344 21.1961 20.76C21.2007 25.2552 22.9861 29.5649 26.1607 32.7435C29.3351 35.922 33.6394 37.7098 38.1289 37.7143C39.0067 37.7096 39.8827 37.6351 40.7485 37.4914V45.7714Z" fill="#E5E5E5"/>
</svg>
