<svg width="227" height="60" viewBox="0 0 227 60" fill="none" xmlns="http://www.w3.org/2000/svg">
<path d="M77.094 43.208C76.0711 43.2634 75.0594 42.9735 74.2221 42.3852C73.8723 42.1267 73.5908 41.7871 73.402 41.3959C73.2132 41.0045 73.1229 40.5733 73.1387 40.1395V24.248C73.1304 24.1808 73.1375 24.1124 73.1597 24.0483C73.1817 23.9842 73.2182 23.9261 73.2663 23.8781C73.3145 23.8301 73.3728 23.7937 73.4371 23.7718C73.5014 23.7497 73.57 23.7427 73.6374 23.7509H76.5265C76.8533 23.7509 77.008 23.9223 77.008 24.248V38.9052C77.008 39.5566 77.3004 39.8823 77.9023 39.8823C78.1575 39.8928 78.4127 39.864 78.6589 39.7966C79.0029 39.7966 79.192 39.8995 79.2092 40.208L79.4672 42.3509C79.4796 42.4135 79.4784 42.4777 79.4638 42.5398C79.4491 42.6017 79.4213 42.66 79.3821 42.7102C79.343 42.7606 79.2935 42.8021 79.2371 42.8318C79.1805 42.8614 79.1183 42.8787 79.0545 42.8823C78.4216 43.0908 77.7604 43.2007 77.094 43.208Z" fill="#E5E5E5"/>
<path d="M93.3451 41.3738C91.8936 42.5696 90.0691 43.2236 88.1861 43.2236C86.303 43.2236 84.4787 42.5696 83.027 41.3738C81.7511 40.0898 81.0352 38.3555 81.0352 36.5481C81.0352 34.7408 81.7511 33.0064 83.027 31.7224C84.4815 30.5329 86.3047 29.8828 88.1861 29.8828C90.0674 29.8828 91.8906 30.5329 93.3451 31.7224C94.5918 33.0182 95.2877 34.7442 95.2877 36.5396C95.2877 38.3349 94.5918 40.0609 93.3451 41.3567V41.3738ZM85.7441 39.111C86.4179 39.7194 87.2942 40.0562 88.2033 40.0562C89.1123 40.0562 89.9888 39.7194 90.6624 39.111C91.2722 38.4122 91.6079 37.5172 91.6079 36.591C91.6079 35.6649 91.2722 34.7699 90.6624 34.071C89.9888 33.4628 89.1123 33.1257 88.2033 33.1257C87.2942 33.1257 86.4179 33.4628 85.7441 34.071C85.1345 34.7699 84.7986 35.6649 84.7986 36.591C84.7986 37.5172 85.1345 38.4122 85.7441 39.111Z" fill="#E5E5E5"/>
<path d="M111.196 30.3165C111.522 30.3165 111.677 30.4879 111.677 30.8137V43.1051C111.707 43.9348 111.551 44.7606 111.221 45.5226C110.891 46.2847 110.395 46.9639 109.768 47.5108C108.378 48.6928 106.59 49.3053 104.764 49.2251C103.115 49.2829 101.488 48.8341 100.104 47.9394C99.5123 47.5525 99.0073 47.0483 98.6198 46.4586C98.2322 45.8687 97.9705 45.2058 97.8508 44.5108C97.8508 44.1679 97.8508 44.0137 98.3151 44.0137H101.204C101.327 44.0178 101.446 44.0574 101.546 44.1273C101.647 44.1973 101.725 44.2946 101.772 44.4079C101.959 44.9286 102.333 45.3621 102.821 45.6251C103.416 45.9311 104.078 46.0843 104.747 46.0708C105.151 46.0929 105.555 46.0345 105.936 45.899C106.316 45.7638 106.666 45.5539 106.965 45.2822C107.238 44.998 107.45 44.6615 107.589 44.2933C107.728 43.925 107.791 43.5325 107.773 43.1394V42.0594C106.739 42.8178 105.48 43.21 104.196 43.1737C103.298 43.2062 102.402 43.0576 101.563 42.7365C100.724 42.4153 99.9584 41.9286 99.3125 41.3051C98.0728 40.0266 97.3797 38.3178 97.3797 36.5394C97.3797 34.7611 98.0728 33.0523 99.3125 31.7737C99.9615 31.1558 100.728 30.6738 101.567 30.3558C102.406 30.0378 103.3 29.8903 104.196 29.9222C105.517 29.8874 106.81 30.305 107.859 31.1051V30.8308C107.851 30.7651 107.858 30.6985 107.88 30.6357C107.901 30.5731 107.936 30.5159 107.982 30.4682C108.028 30.4206 108.084 30.3839 108.146 30.3606C108.208 30.3373 108.275 30.3282 108.341 30.3337L111.196 30.3165ZM104.523 40.1222C104.966 40.1359 105.407 40.0525 105.814 39.8776C106.221 39.7029 106.585 39.4411 106.879 39.1108C107.451 38.3749 107.761 37.4702 107.761 36.5394C107.761 35.6085 107.451 34.7041 106.879 33.9679C106.586 33.6422 106.224 33.3842 105.82 33.2125C105.416 33.0407 104.979 32.9593 104.54 32.9737C104.092 32.9596 103.646 33.0427 103.234 33.2174C102.821 33.3921 102.451 33.6541 102.15 33.9851C101.517 34.6891 101.184 35.6116 101.221 36.5565C101.19 37.4922 101.516 38.4049 102.133 39.1108C102.435 39.441 102.805 39.7024 103.217 39.8769C103.63 40.0514 104.075 40.1351 104.523 40.1222Z" fill="#E5E5E5"/>
<path d="M126.518 41.3738C125.064 42.5633 123.24 43.2134 121.359 43.2134C119.478 43.2134 117.654 42.5633 116.2 41.3738C114.952 40.075 114.256 38.3463 114.256 36.548C114.256 34.7499 114.952 33.0211 116.2 31.7223C117.656 30.5359 119.479 29.8877 121.359 29.8877C123.24 29.8877 125.062 30.5359 126.518 31.7223C127.765 33.0182 128.461 34.7441 128.461 36.5395C128.461 38.3348 127.765 40.0608 126.518 41.3566V41.3738ZM118.9 39.1109C119.23 39.4236 119.618 39.6679 120.043 39.8297C120.468 39.9915 120.921 40.0678 121.376 40.0538C121.828 40.0654 122.278 39.9883 122.7 39.8264C123.122 39.6646 123.508 39.4215 123.835 39.1109C124.435 38.4074 124.765 37.5142 124.765 36.5909C124.765 35.6676 124.435 34.7744 123.835 34.0709C123.508 33.7604 123.122 33.5172 122.7 33.3555C122.278 33.1937 121.828 33.1164 121.376 33.128C120.921 33.1142 120.468 33.1903 120.043 33.3521C119.618 33.5139 119.23 33.7584 118.9 34.0709C118.3 34.7744 117.971 35.6676 117.971 36.5909C117.971 37.5142 118.3 38.4074 118.9 39.1109Z" fill="#E5E5E5"/>
<path d="M134.669 27.4023C134.215 27.799 133.631 28.0176 133.027 28.0176C132.423 28.0176 131.84 27.799 131.385 27.4023C131.179 27.2084 131.015 26.9746 130.902 26.7152C130.79 26.4559 130.732 26.1763 130.732 25.8937C130.732 25.6112 130.79 25.3318 130.902 25.0723C131.015 24.8129 131.179 24.5791 131.385 24.3852C131.844 23.9984 132.426 23.7864 133.027 23.7864C133.628 23.7864 134.21 23.9984 134.669 24.3852C134.876 24.5791 135.04 24.8129 135.152 25.0723C135.264 25.3318 135.322 25.6112 135.322 25.8937C135.322 26.1763 135.264 26.4559 135.152 26.7152C135.04 26.9746 134.876 27.2084 134.669 27.4023ZM135.031 43.208C134.008 43.2581 132.998 42.9687 132.159 42.3852C131.814 42.1229 131.538 41.7821 131.352 41.3914C131.167 41.0007 131.078 40.5715 131.093 40.1395V30.8137C131.084 30.7465 131.091 30.6781 131.113 30.614C131.136 30.5499 131.172 30.4918 131.22 30.4438C131.268 30.3958 131.327 30.3595 131.391 30.3375C131.455 30.3154 131.524 30.3084 131.591 30.3166H134.48C134.807 30.3166 134.962 30.488 134.962 30.8137V38.9052C134.962 39.5566 135.254 39.8823 135.839 39.8823C136.1 39.8917 136.36 39.8628 136.613 39.7966C136.957 39.7966 137.146 39.8995 137.163 40.208L137.421 42.3509C137.433 42.4135 137.432 42.4777 137.418 42.5398C137.403 42.6017 137.375 42.66 137.336 42.7102C137.297 42.7606 137.247 42.8021 137.191 42.8317C137.134 42.8614 137.072 42.8787 137.008 42.8823C136.37 43.092 135.703 43.2019 135.031 43.208Z" fill="#E5E5E5"/>
<path d="M148.049 29.9052C148.951 29.8697 149.851 30.0152 150.696 30.3332C151.541 30.6514 152.314 31.1354 152.967 31.7566C154.183 33.0578 154.859 34.7698 154.859 36.548C154.859 38.3263 154.183 40.0385 152.967 41.3395C152.317 41.9664 151.545 42.4551 150.7 42.7762C149.855 43.0975 148.953 43.2444 148.049 43.208C146.761 43.2367 145.499 42.8455 144.455 42.0938V48.2823C144.455 48.608 144.283 48.7623 143.956 48.7623H141.067C141.001 48.7747 140.933 48.7707 140.869 48.751C140.805 48.7311 140.747 48.6961 140.699 48.6488C140.652 48.6015 140.617 48.5436 140.597 48.4796C140.577 48.4159 140.573 48.3482 140.585 48.2823V34.2252C140.606 34.0877 140.593 33.9475 140.549 33.8155C140.506 33.6836 140.431 33.5636 140.333 33.4654C140.234 33.3672 140.114 33.2933 139.982 33.2496C139.849 33.2059 139.709 33.1937 139.571 33.2138H139.003C138.625 33.2138 138.436 33.0766 138.436 32.8023V30.7795C138.427 30.6543 138.461 30.5299 138.533 30.427C138.605 30.324 138.71 30.2487 138.831 30.2138C139.426 29.9983 140.056 29.8937 140.688 29.9052C141.32 29.8495 141.953 29.983 142.508 30.2883C143.062 30.5938 143.513 31.0574 143.801 31.6195C144.355 31.061 145.017 30.6209 145.748 30.326C146.478 30.0314 147.261 29.888 148.049 29.9052ZM145.366 39.1109C145.673 39.4304 146.041 39.6847 146.449 39.8583C146.857 40.032 147.296 40.1215 147.739 40.1215C148.183 40.1215 148.622 40.032 149.029 39.8583C149.437 39.6847 149.806 39.4304 150.112 39.1109C150.758 38.3928 151.098 37.4518 151.058 36.488C151.103 35.5236 150.763 34.5804 150.112 33.8652C149.806 33.5458 149.437 33.2916 149.029 33.1179C148.622 32.9441 148.183 32.8546 147.739 32.8546C147.296 32.8546 146.857 32.9441 146.449 33.1179C146.041 33.2916 145.673 33.5458 145.366 33.8652C144.74 34.5931 144.415 35.5303 144.455 36.488C144.42 37.4451 144.745 38.3806 145.366 39.1109Z" fill="#E5E5E5"/>
<path d="M162.976 43.2079C161.432 43.2712 159.901 42.9031 158.556 42.1451C158.016 41.8211 157.557 41.38 157.211 40.8547C156.866 40.3295 156.644 39.7334 156.561 39.1108C156.561 38.7679 156.682 38.5965 157.06 38.5965H159.588C159.708 38.6013 159.825 38.6388 159.925 38.7055C160.025 38.772 160.105 38.8648 160.155 38.9736C160.517 39.8994 161.462 40.3622 162.976 40.3622C163.504 40.3864 164.029 40.2803 164.506 40.0536C164.671 39.9796 164.812 39.8623 164.915 39.7144C165.018 39.5664 165.079 39.3933 165.091 39.2136C165.091 38.7679 164.816 38.4594 164.265 38.2536C163.613 38.0371 162.938 37.8933 162.253 37.8251C161.443 37.7335 160.638 37.5904 159.846 37.3965C159.075 37.2227 158.374 36.8226 157.834 36.2479C157.515 35.8574 157.281 35.4057 157.145 34.9211C157.01 34.4364 156.975 33.929 157.045 33.4307C157.114 32.9322 157.286 32.4532 157.549 32.0238C157.812 31.5942 158.16 31.2232 158.573 30.9336C159.813 30.1466 161.267 29.7631 162.735 29.8365C164.156 29.7887 165.562 30.1391 166.793 30.8479C167.29 31.1282 167.717 31.5151 168.044 31.9807C168.371 32.4463 168.59 32.9788 168.685 33.5394C168.685 33.8822 168.53 34.0536 168.221 34.0536H165.676C165.568 34.06 165.462 34.0339 165.37 33.9789C165.278 33.9239 165.205 33.8423 165.16 33.7451C164.99 33.3391 164.669 33.0138 164.265 32.8365C163.81 32.5989 163.301 32.4808 162.787 32.4936C162.282 32.4664 161.78 32.5667 161.325 32.7851C161.164 32.8468 161.027 32.9548 160.928 33.0954C160.83 33.2359 160.777 33.4026 160.774 33.5736C160.785 33.8082 160.872 34.0329 161.02 34.215C161.169 34.397 161.372 34.5266 161.6 34.5851C162.26 34.8333 162.947 35.0058 163.646 35.0994C164.451 35.205 165.249 35.3538 166.037 35.5451C166.808 35.7191 167.508 36.119 168.049 36.6936C168.338 37.0103 168.561 37.3807 168.706 37.7839C168.851 38.187 168.914 38.6147 168.891 39.0422C168.906 39.6348 168.767 40.2211 168.486 40.744C168.206 41.2667 167.795 41.7081 167.292 42.0251C166.007 42.8474 164.502 43.2599 162.976 43.2079Z" fill="#E5E5E5"/>
<path d="M187.069 42.3509C187.079 42.4118 187.076 42.474 187.062 42.5338C187.046 42.5938 187.021 42.6501 186.983 42.6996C186.947 42.7492 186.9 42.7908 186.847 42.8222C186.793 42.8536 186.735 42.874 186.673 42.8824C186.045 43.0867 185.39 43.1966 184.73 43.2081C184.076 43.2756 183.416 43.1738 182.814 42.9125C182.21 42.6513 181.686 42.2393 181.29 41.7166C180.076 42.7577 178.505 43.2919 176.905 43.2081C176.162 43.2422 175.421 43.121 174.728 42.8524C174.035 42.5837 173.406 42.1735 172.881 41.6481C172.36 41.0976 171.956 40.4479 171.693 39.738C171.43 39.0281 171.314 38.2727 171.351 37.5167V30.8138C171.351 30.4881 171.505 30.3167 171.832 30.3167H174.721C175.048 30.3167 175.203 30.4881 175.203 30.8138V37.0024C175.172 37.7734 175.435 38.5274 175.942 39.1109C176.195 39.3784 176.503 39.5885 176.843 39.7276C177.184 39.8666 177.552 39.9311 177.92 39.9167C178.296 39.9331 178.673 39.875 179.027 39.7454C179.382 39.616 179.707 39.4178 179.983 39.1624C180.245 38.8932 180.45 38.5733 180.582 38.2224C180.716 37.8715 180.775 37.4971 180.757 37.1224V30.8138C180.757 30.4881 180.912 30.3167 181.239 30.3167H184.162C184.489 30.3167 184.644 30.4881 184.644 30.8138V38.8881C184.644 39.5567 184.936 39.8824 185.504 39.8824C185.77 39.8926 186.037 39.8639 186.295 39.7967C186.36 39.7785 186.429 39.7752 186.494 39.7872C186.561 39.799 186.623 39.8258 186.678 39.8654C186.733 39.905 186.778 39.9564 186.811 40.0157C186.842 40.0751 186.859 40.1409 186.862 40.2081L187.069 42.3509Z" fill="#E5E5E5"/>
<path d="M214.395 42.351C214.41 42.4123 214.412 42.4764 214.4 42.5385C214.386 42.6004 214.36 42.659 214.322 42.7098C214.285 42.7605 214.236 42.8023 214.18 42.8322C214.125 42.8622 214.063 42.8793 213.999 42.8824C213.359 43.0896 212.694 43.1995 212.021 43.2081C210.998 43.2607 209.989 42.9712 209.15 42.3852C208.787 42.1343 208.493 41.7981 208.291 41.4064C208.09 41.0147 207.989 40.5794 207.997 40.1395V36.111C208.033 35.3423 207.776 34.5885 207.275 34.0024C207.034 33.7344 206.735 33.5232 206.403 33.3839C206.07 33.2447 205.71 33.1807 205.349 33.1967C205.024 33.1845 204.701 33.246 204.401 33.3767C204.104 33.5073 203.841 33.7038 203.629 33.951C203.175 34.5254 202.943 35.2434 202.976 35.9738V42.2995C202.976 42.6252 202.821 42.7967 202.494 42.7967H199.588C199.521 42.8051 199.452 42.7979 199.389 42.7759C199.323 42.7538 199.265 42.7175 199.217 42.6695C199.168 42.6216 199.132 42.5634 199.11 42.4992C199.088 42.4351 199.081 42.3669 199.089 42.2995V36.111C199.127 35.3507 198.888 34.6022 198.419 34.0024C198.209 33.7504 197.946 33.5476 197.648 33.4084C197.352 33.2692 197.027 33.1968 196.699 33.1967C196.348 33.1826 195.999 33.2424 195.672 33.3726C195.346 33.5025 195.051 33.6996 194.807 33.951C194.315 34.5071 194.063 35.2336 194.102 35.9738V42.2995C194.111 42.3669 194.104 42.4351 194.082 42.4992C194.059 42.5634 194.023 42.6216 193.975 42.6695C193.927 42.7175 193.868 42.7538 193.805 42.7759C193.739 42.7979 193.671 42.8051 193.603 42.7967H190.8C190.474 42.7967 190.319 42.6252 190.319 42.2995V34.2252C190.339 34.0878 190.327 33.9475 190.283 33.8155C190.24 33.6837 190.166 33.5637 190.066 33.4655C189.968 33.3672 189.848 33.2934 189.715 33.2496C189.583 33.2059 189.442 33.1938 189.304 33.2138H188.737C188.358 33.2138 188.169 33.0767 188.169 32.8024V30.7795C188.161 30.6544 188.195 30.5299 188.267 30.4271C188.339 30.324 188.444 30.2488 188.565 30.2138C189.16 29.9983 189.789 29.8938 190.422 29.9052C191.029 29.8536 191.64 29.9743 192.181 30.2534C192.723 30.5325 193.174 30.9585 193.483 31.4824C194.063 30.9343 194.751 30.5112 195.502 30.2399C196.254 29.9685 197.053 29.8547 197.851 29.9052C198.627 29.8675 199.399 30.0124 200.107 30.3282C200.816 30.6439 201.438 31.1215 201.927 31.7224C202.496 31.1058 203.196 30.623 203.975 30.3086C204.754 29.9944 205.593 29.8567 206.432 29.9052C207.182 29.8703 207.932 29.9908 208.634 30.2594C209.335 30.5279 209.973 30.9384 210.508 31.4652C211.031 32.0147 211.435 32.6642 211.698 33.3744C211.961 34.0845 212.078 34.8407 212.039 35.5967V38.9052C212.039 39.5567 212.331 39.8824 212.881 39.8824C213.148 39.8947 213.414 39.8659 213.672 39.7967C214.028 39.7967 214.217 39.9338 214.24 40.2081L214.395 42.351Z" fill="#E5E5E5"/>
<path d="M12.7429 28.088C14.0117 23.0046 16.9501 18.4904 21.0902 15.2643C25.2304 12.0382 30.3342 10.2856 35.5891 10.2856C40.844 10.2856 45.9479 12.0382 50.0881 15.2643C54.2282 18.4904 57.1665 23.0046 58.4353 28.088H56.3717C52.8905 28.0369 49.4807 29.074 46.621 31.0537C46.4559 31.1728 46.2836 31.2817 46.1051 31.3794H45.8643C45.6858 31.2817 45.5135 31.1728 45.3484 31.0537C42.4634 29.1198 39.0657 28.087 35.5891 28.087C32.1126 28.087 28.7148 29.1198 25.8298 31.0537C25.6648 31.1728 25.4924 31.2817 25.3139 31.3794H25.0732C24.8947 31.2817 24.7224 31.1728 24.5573 31.0537C21.6976 29.074 18.2878 28.0369 14.8066 28.088H12.7429ZM52.6571 38.8366C53.7164 38.0142 55.0294 37.5839 56.3717 37.6194H59.1404V32.1166H56.3717C54.0074 32.0881 51.6973 32.8216 49.7852 34.208C48.7092 34.9988 47.4076 35.4255 46.0707 35.4255C44.7338 35.4255 43.4321 34.9988 42.3561 34.208C40.3955 32.8475 38.0639 32.1181 35.6751 32.1181C33.2863 32.1181 30.9547 32.8475 28.9941 34.208C27.9181 34.9988 26.6164 35.4255 25.2795 35.4255C23.9426 35.4255 22.641 34.9988 21.565 34.208C19.6293 32.8038 17.286 32.0694 14.8926 32.1166H12.0379V37.6194H14.8066C16.1488 37.5839 17.4618 38.0142 18.5211 38.8366C20.4781 40.198 22.8071 40.928 25.1936 40.928C27.58 40.928 29.909 40.198 31.866 38.8366C32.9267 38.0168 34.2386 37.5868 35.5805 37.6194C36.9233 37.581 38.2371 38.0116 39.2951 38.8366C41.2557 40.1972 43.5873 40.9264 45.9761 40.9264C48.3649 40.9264 50.6965 40.1972 52.6571 38.8366ZM52.6571 48.6766C53.7164 47.8542 55.0294 47.4239 56.3717 47.4594H59.1404V41.9566H56.3717C54.0074 41.9281 51.6973 42.6616 49.7852 44.048C48.7092 44.8388 47.4076 45.2655 46.0707 45.2655C44.7338 45.2655 43.4321 44.8388 42.3561 44.048C40.3955 42.6875 38.0639 41.9583 35.6751 41.9583C33.2863 41.9583 30.9547 42.6875 28.9941 44.048C27.9181 44.8388 26.6164 45.2655 25.2795 45.2655C23.9426 45.2655 22.641 44.8388 21.565 44.048C19.6293 42.644 17.286 41.9094 14.8926 41.9566H12.0379V47.4594H14.8066C16.1488 47.4239 17.4618 47.8542 18.5211 48.6766C20.4781 50.038 22.8071 50.768 25.1936 50.768C27.58 50.768 29.909 50.038 31.866 48.6766C32.9267 47.8568 34.2386 47.4268 35.5805 47.4594C36.9233 47.421 38.2371 47.8516 39.2951 48.6766C41.2557 50.0372 43.5873 50.7664 45.9761 50.7664C48.3649 50.7664 50.6965 50.0372 52.6571 48.6766Z" fill="#E5E5E5"/>
</svg>
