<svg width="121" height="26" viewBox="0 0 121 26" fill="none" xmlns="http://www.w3.org/2000/svg">
<path d="M33.496 12.4C33.208 12.752 32.7867 13.0347 32.232 13.248C31.688 13.4507 31.048 13.552 30.312 13.552H28.456V18H26.2V6.832H30.312C31.6027 6.832 32.5947 7.15733 33.288 7.808C33.992 8.448 34.344 9.20533 34.344 10.08C34.344 10.9547 34.0613 11.728 33.496 12.4ZM28.456 11.824H30.312C30.8773 11.824 31.3093 11.68 31.608 11.392C31.9067 11.0933 32.056 10.6933 32.056 10.192C32.056 9.69067 31.9067 9.296 31.608 9.008C31.3093 8.70933 30.8773 8.56 30.312 8.56H28.456V11.824ZM43.5958 15.056C44.2251 14.384 44.5398 13.4933 44.5398 12.384C44.5398 11.2747 44.2251 10.3893 43.5958 9.728C42.9664 9.06667 42.1451 8.736 41.1318 8.736C40.1184 8.736 39.2918 9.072 38.6518 9.744C38.0224 10.4053 37.7078 11.2907 37.7078 12.4C37.7078 13.4987 38.0224 14.384 38.6518 15.056C39.2918 15.7173 40.1184 16.048 41.1318 16.048C42.1451 16.048 42.9664 15.7173 43.5958 15.056ZM41.1318 18.112C39.5211 18.112 38.1664 17.5733 37.0678 16.496C35.9691 15.4187 35.4198 14.0533 35.4198 12.4C35.4198 10.736 35.9691 9.36533 37.0678 8.288C38.1771 7.21067 39.5318 6.672 41.1318 6.672C42.7424 6.672 44.0971 7.21067 45.1958 8.288C46.2944 9.36533 46.8438 10.736 46.8438 12.4C46.8438 14.0533 46.2944 15.4187 45.1958 16.496C44.0971 17.5733 42.7424 18.112 41.1318 18.112ZM50.8779 13.552V18H48.6219V6.832H52.7339C54.0245 6.832 55.0165 7.15733 55.7099 7.808C56.4139 8.448 56.7659 9.24267 56.7659 10.192C56.7659 10.896 56.5525 11.552 56.1259 12.16C55.6992 12.768 55.0272 13.184 54.1099 13.408L56.9579 18H54.2859L51.6139 13.552H50.8779ZM50.8779 8.56V11.824H52.7339C53.2992 11.824 53.7312 11.68 54.0299 11.392C54.3285 11.0933 54.4779 10.6933 54.4779 10.192C54.4779 9.69067 54.3285 9.296 54.0299 9.008C53.7312 8.70933 53.2992 8.56 52.7339 8.56H50.8779ZM58.3565 8.56V6.832H66.6285V8.56H63.6045V18H61.3645V8.56H58.3565ZM75.9083 15.056C76.5376 14.384 76.8523 13.4933 76.8523 12.384C76.8523 11.2747 76.5376 10.3893 75.9083 9.728C75.2789 9.06667 74.4576 8.736 73.4443 8.736C72.4309 8.736 71.6043 9.072 70.9643 9.744C70.3349 10.4053 70.0203 11.2907 70.0203 12.4C70.0203 13.4987 70.3349 14.384 70.9643 15.056C71.6043 15.7173 72.4309 16.048 73.4443 16.048C74.4576 16.048 75.2789 15.7173 75.9083 15.056ZM73.4443 18.112C71.8336 18.112 70.4789 17.5733 69.3803 16.496C68.2816 15.4187 67.7323 14.0533 67.7323 12.4C67.7323 10.736 68.2816 9.36533 69.3803 8.288C70.4896 7.21067 71.8443 6.672 73.4443 6.672C75.0549 6.672 76.4096 7.21067 77.5083 8.288C78.6069 9.36533 79.1563 10.736 79.1563 12.4C79.1563 14.0533 78.6069 15.4187 77.5083 16.496C76.4096 17.5733 75.0549 18.112 73.4443 18.112ZM84.5504 8.48C84.1024 8.48 83.7344 8.59733 83.4464 8.832C83.169 9.056 83.0304 9.37067 83.0304 9.776C83.0304 10.1813 83.1317 10.5013 83.3344 10.736C83.5477 10.96 83.825 11.136 84.1664 11.264C84.5077 11.3813 84.881 11.488 85.2864 11.584C85.6917 11.68 86.097 11.7973 86.5024 11.936C86.9077 12.0747 87.281 12.2453 87.6224 12.448C87.9637 12.6507 88.2357 12.9493 88.4384 13.344C88.6517 13.728 88.7584 14.1973 88.7584 14.752C88.7584 15.6693 88.3904 16.4587 87.6544 17.12C86.929 17.7813 85.9584 18.112 84.7424 18.112C83.537 18.112 82.561 17.8293 81.8144 17.264C81.0677 16.688 80.6944 15.8827 80.6944 14.848H83.0944C83.1797 15.8293 83.7397 16.32 84.7744 16.32C85.2864 16.32 85.6917 16.1867 85.9904 15.92C86.289 15.6533 86.4384 15.3013 86.4384 14.864C86.4384 14.416 86.241 14.064 85.8464 13.808C85.4517 13.552 84.9717 13.36 84.4064 13.232C83.8517 13.104 83.2917 12.9493 82.7264 12.768C82.161 12.5867 81.681 12.272 81.2864 11.824C80.8917 11.3653 80.6944 10.7627 80.6944 10.016C80.6944 9.00267 81.0624 8.192 81.7984 7.584C82.5344 6.976 83.4784 6.672 84.6304 6.672C85.793 6.672 86.7264 6.93867 87.4304 7.472C88.1344 7.99467 88.5184 8.79467 88.5824 9.872H86.1184C86.0757 9.44533 85.9157 9.10933 85.6384 8.864C85.361 8.608 84.9984 8.48 84.5504 8.48ZM90.2628 8.56V6.832H98.5347V8.56H95.5108V18H93.2708V8.56H90.2628ZM107.591 18L106.871 15.904H102.519L101.799 18H99.4145L103.367 6.8H106.039L109.975 18H107.591ZM103.111 14.176H106.295L104.695 9.52L103.111 14.176ZM113.8 13.552V18H111.544V6.832H115.656C116.946 6.832 117.938 7.15733 118.632 7.808C119.336 8.448 119.688 9.24267 119.688 10.192C119.688 10.896 119.474 11.552 119.048 12.16C118.621 12.768 117.949 13.184 117.032 13.408L119.88 18H117.208L114.536 13.552H113.8ZM113.8 8.56V11.824H115.656C116.221 11.824 116.653 11.68 116.952 11.392C117.25 11.0933 117.4 10.6933 117.4 10.192C117.4 9.69067 117.25 9.296 116.952 9.008C116.653 8.70933 116.221 8.56 115.656 8.56H113.8Z" fill="#5E3BEE"/>
<circle cx="9.5" cy="12.5" r="9.5" fill="#5E3BEE"/>
<path d="M11.396 16L10.856 14.428H7.592L7.052 16H5.264L8.228 7.6H10.232L13.184 16H11.396ZM8.036 13.132H10.424L9.224 9.64L8.036 13.132Z" fill="white"/>
</svg>
