<svg width="229" height="58" viewBox="0 0 229 58" fill="none" xmlns="http://www.w3.org/2000/svg">
<path d="M26.4034 11.344V4.09399H3.50336V53.9058H26.4034V46.6558C21.7123 46.6558 17.2133 44.7955 13.8963 41.4844C10.5792 38.1733 8.71567 33.6825 8.71567 28.9999C8.71567 24.3172 10.5792 19.8263 13.8963 16.5153C17.2133 13.2042 21.7123 11.344 26.4034 11.344Z" fill="#E5E5E5"/>
<path d="M26.4034 11.344V46.6558C31.0944 46.6558 35.5934 44.7955 38.9105 41.4844C42.2276 38.1733 44.091 33.6825 44.091 28.9999C44.091 24.3172 42.2276 19.8263 38.9105 16.5153C35.5934 13.2042 31.0944 11.344 26.4034 11.344Z" fill="#E5E5E5"/>
<path d="M56.9424 15.7793H62.0693V40.4293H56.9424V15.7793Z" fill="#E5E5E5"/>
<path d="M64.9403 31.9852C64.9403 30.2118 65.4678 28.4783 66.456 27.0044C67.4441 25.5305 68.8483 24.3826 70.4908 23.7062C72.1333 23.03 73.9398 22.8557 75.6816 23.2054C77.4234 23.5551 79.0219 24.4132 80.2746 25.6707C81.5272 26.9285 82.3778 28.5289 82.7182 30.2696C83.0585 32.0103 82.8736 33.8126 82.1866 35.4482C81.4996 37.0836 80.3417 38.4788 78.8596 39.4567C77.3774 40.4346 75.6377 40.9512 73.861 40.9411C72.6827 40.9503 71.5143 40.7246 70.4245 40.277C69.3347 39.8296 68.3452 39.1694 67.5143 38.3354C66.6834 37.5012 66.0279 36.5097 65.5858 35.4193C65.1438 34.3289 64.9244 33.1614 64.9403 31.9852ZM77.7916 31.9852C77.7715 31.2207 77.5259 30.4789 77.0857 29.853C76.6454 29.227 76.0302 28.7444 75.3166 28.4657C74.6031 28.1869 73.8231 28.1243 73.0742 28.2859C72.3252 28.4472 71.6406 28.8254 71.1059 29.3734C70.5711 29.9211 70.21 30.614 70.0678 31.3657C69.9257 32.1173 70.0085 32.894 70.3062 33.5987C70.6039 34.3034 71.1031 34.905 71.7416 35.3279C72.3799 35.751 73.1289 35.9767 73.8952 35.977C74.417 35.9872 74.9351 35.8898 75.4174 35.6909C75.8996 35.4922 76.3356 35.1962 76.6981 34.8216C77.0605 34.447 77.3417 34.0016 77.524 33.5137C77.7064 33.0257 77.7858 32.5054 77.7575 31.9852H77.7916Z" fill="#E5E5E5"/>
<path d="M103.067 23.5412V39.5935C103.067 45.2571 98.6238 47.6624 94.1293 47.6624C92.5439 47.7922 90.9537 47.4778 89.5378 46.7545C88.1218 46.0312 86.9361 44.9277 86.1142 43.5682L90.4379 41.0777C90.7882 41.7829 91.3455 42.3646 92.0356 42.7455C92.7257 43.1264 93.5156 43.2885 94.3001 43.21C94.8 43.2714 95.3072 43.222 95.7856 43.065C96.2641 42.9079 96.7017 42.6474 97.0675 42.3018C97.4333 41.9562 97.7181 41.5343 97.9014 41.0661C98.0848 40.598 98.1622 40.0951 98.1282 39.5935V38.0412C97.5316 38.7633 96.7745 39.3365 95.9173 39.7155C95.06 40.0946 94.126 40.2689 93.1893 40.2247C90.9231 40.2247 88.7498 39.3261 87.1473 37.7265C85.5448 36.127 84.6445 33.9575 84.6445 31.6953C84.6445 29.4331 85.5448 27.2638 87.1473 25.6642C88.7498 24.0646 90.9231 23.1659 93.1893 23.1659C94.126 23.1217 95.06 23.2961 95.9173 23.6751C96.7745 24.0541 97.5316 24.6273 98.1282 25.3494V23.6435L103.067 23.5412ZM98.1282 31.6441C98.1622 30.828 97.951 30.0203 97.5215 29.325C97.0921 28.6297 96.4642 28.0785 95.7182 27.7423C94.9725 27.406 94.1431 27.3003 93.3365 27.4384C92.53 27.5766 91.7832 27.9524 91.1924 28.5176C90.6016 29.0827 90.1937 29.8115 90.0211 30.61C89.8485 31.4085 89.9191 32.2402 90.2238 32.9983C90.5287 33.7564 91.0536 34.4061 91.7312 34.864C92.409 35.3218 93.2085 35.567 94.0267 35.5677C94.5608 35.606 95.0969 35.5322 95.6003 35.351C96.104 35.1697 96.564 34.885 96.9504 34.5151C97.337 34.1455 97.6415 33.6989 97.8443 33.2043C98.0472 32.7098 98.1439 32.1782 98.1282 31.6441Z" fill="#E5E5E5"/>
<path d="M105.955 31.9852C105.955 30.2131 106.482 28.481 107.468 27.0078C108.455 25.5346 109.857 24.3867 111.498 23.7095C113.138 23.0321 114.943 22.8557 116.684 23.2026C118.425 23.5496 120.023 24.4043 121.278 25.6584C122.532 26.9128 123.385 28.5102 123.729 30.2485C124.073 31.9869 123.893 33.7882 123.211 35.4243C122.53 37.0606 121.377 38.458 119.899 39.4401C118.422 40.4222 116.685 40.9445 114.91 40.9411C113.73 40.9525 112.558 40.7285 111.466 40.2823C110.373 39.836 109.38 39.1765 108.547 38.3424C107.712 37.5082 107.054 36.5162 106.609 35.4246C106.164 34.333 105.942 33.1636 105.955 31.9852ZM118.807 31.9852C118.786 31.22 118.54 30.4776 118.099 29.8512C117.658 29.2249 117.042 28.7423 116.328 28.4641C115.613 28.1859 114.832 28.1243 114.083 28.2872C113.333 28.4499 112.649 28.83 112.115 29.3795C111.581 29.9289 111.221 30.6236 111.081 31.3762C110.941 32.1288 111.026 32.906 111.326 33.6104C111.626 34.3149 112.128 34.9152 112.769 35.3362C113.41 35.7571 114.16 35.98 114.927 35.977C115.449 35.9872 115.967 35.8898 116.449 35.6909C116.932 35.4922 117.368 35.1962 117.73 34.8216C118.093 34.447 118.374 34.0016 118.556 33.5137C118.738 33.0256 118.818 32.5053 118.789 31.9852H118.807Z" fill="#E5E5E5"/>
<path d="M126.241 19.0206C126.241 18.4201 126.419 17.833 126.753 17.3337C127.087 16.8343 127.563 16.4451 128.118 16.2153C128.674 15.9854 129.286 15.9253 129.876 16.0425C130.466 16.1596 131.008 16.4488 131.434 16.8735C131.859 17.2982 132.149 17.8393 132.266 18.4282C132.383 19.0172 132.323 19.6277 132.093 20.1827C131.863 20.7374 131.473 21.2116 130.972 21.5453C130.472 21.879 129.884 22.0571 129.282 22.0571C128.478 22.0482 127.71 21.7255 127.141 21.1579C126.573 20.5904 126.249 19.8232 126.241 19.0206ZM126.736 23.5412H131.863V40.4294H126.736V23.5412Z" fill="#E5E5E5"/>
<path d="M153.806 31.9854C153.863 33.1086 153.698 34.2321 153.319 35.2911C152.94 36.3501 152.354 37.3238 151.597 38.1561C150.839 38.9886 149.924 39.6631 148.904 40.1411C147.884 40.6191 146.78 40.891 145.654 40.9413C144.699 41.0048 143.742 40.8521 142.854 40.4947C141.967 40.1372 141.171 39.5843 140.527 38.8772V47.219H135.401V23.5413H140.527V25.1278C141.172 24.4227 141.968 23.8724 142.856 23.5179C143.744 23.1633 144.7 23.0139 145.654 23.0807C146.775 23.1311 147.875 23.4014 148.892 23.8762C149.908 24.3509 150.821 25.021 151.578 25.8478C152.335 26.6747 152.921 27.6423 153.303 28.6955C153.686 29.7485 153.857 30.8664 153.806 31.9854ZM148.679 31.9854C148.659 31.1931 148.405 30.4244 147.949 29.7756C147.493 29.1269 146.855 28.6267 146.116 28.3383C145.376 28.0496 144.568 27.9855 143.792 28.1535C143.016 28.3215 142.307 28.7146 141.754 29.2831C141.201 29.8517 140.828 30.5706 140.683 31.3498C140.537 32.1289 140.625 32.9336 140.936 33.663C141.246 34.3923 141.766 35.0139 142.429 35.4499C143.092 35.8859 143.869 36.1167 144.663 36.1137C145.207 36.1367 145.749 36.0448 146.255 35.8438C146.761 35.6429 147.218 35.3375 147.598 34.9477C147.977 34.5579 148.269 34.0924 148.456 33.582C148.642 33.0714 148.718 32.5274 148.679 31.9854Z" fill="#E5E5E5"/>
<path d="M169.409 35.363C169.409 39.2524 165.991 40.9071 162.368 40.9071C160.89 41.0399 159.407 40.7272 158.109 40.0095C156.811 39.2918 155.759 38.2021 155.088 36.8813L159.497 34.3907C159.671 34.9993 160.05 35.5297 160.57 35.893C161.089 36.2564 161.718 36.4306 162.351 36.3865C163.564 36.3865 164.179 36.0113 164.179 35.3289C164.179 33.4695 155.857 34.4589 155.857 28.6077C155.857 24.923 158.967 23.0807 162.487 23.0807C163.826 23.0208 165.155 23.3239 166.334 23.9577C167.514 24.5914 168.5 25.5322 169.187 26.6801L164.777 29.0001C164.583 28.56 164.264 28.1857 163.861 27.9223C163.458 27.6589 162.986 27.5178 162.505 27.516C161.616 27.516 161.086 27.8571 161.086 28.4542C161.086 30.3989 169.409 29.1195 169.409 35.363Z" fill="#E5E5E5"/>
<path d="M187.985 23.5413V40.4295H182.858V38.843C182.275 39.5453 181.535 40.1009 180.7 40.4655C179.862 40.83 178.952 40.9929 178.039 40.9413C174.621 40.9413 171.699 38.5018 171.699 33.9471V23.5413H176.826V33.1795C176.785 33.5824 176.832 33.9893 176.966 34.3721C177.099 34.7547 177.313 35.1041 177.593 35.3961C177.875 35.688 178.217 35.9156 178.594 36.0631C178.972 36.2105 179.377 36.2743 179.782 36.2501C181.628 36.2501 182.927 35.1583 182.927 32.8383V23.5413H187.985Z" fill="#E5E5E5"/>
<path d="M217.037 30.0577V40.4294H211.91V30.5012C211.91 28.7953 211.107 27.7377 209.484 27.7377C207.86 27.7377 206.835 28.9147 206.835 30.9106V40.4294H201.708V30.5012C201.708 28.7953 200.905 27.7377 199.281 27.7377C197.658 27.7377 196.632 28.9147 196.632 30.9106V40.4294H191.506V23.5412H196.632V25.0935C197.164 24.4078 197.856 23.8646 198.651 23.5132C199.444 23.1618 200.313 23.013 201.178 23.0806C202.045 23.0354 202.909 23.2162 203.685 23.605C204.461 23.9938 205.122 24.5773 205.604 25.2982C206.168 24.5449 206.913 23.9465 207.771 23.5588C208.628 23.1708 209.571 23.0064 210.509 23.0806C214.508 23.0806 217.037 25.8441 217.037 30.0577Z" fill="#E5E5E5"/>
<path d="M221.344 23.439C223.42 23.439 225.104 21.7587 225.104 19.686C225.104 17.6134 223.42 15.9331 221.344 15.9331C219.267 15.9331 217.584 17.6134 217.584 19.686C217.584 21.7587 219.267 23.439 221.344 23.439Z" fill="#E5E5E5"/>
</svg>
