<svg width="41" height="42" viewBox="0 0 41 42" fill="none" xmlns="http://www.w3.org/2000/svg">
<circle cx="15" cy="27" r="15" fill="#F1F0FB"/>
<path d="M21.125 4.50004C21.6571 4.07403 22.3184 3.84192 23 3.84192C23.6816 3.84192 24.3429 4.07403 24.875 4.50004L36.32 13.6545C36.8102 14.0466 37.165 14.5826 37.3345 15.187C37.5041 15.7914 37.4797 16.4337 37.265 17.0235L32.7185 29.5245C32.5081 30.1035 32.1246 30.6037 31.6201 30.9571C31.1156 31.3106 30.5145 31.5001 29.8985 31.5H16.1015C15.4855 31.5001 14.8844 31.3106 14.3799 30.9571C13.8754 30.6037 13.4919 30.1035 13.2815 29.5245L8.7365 17.0235C8.52176 16.4337 8.49744 15.7914 8.66696 15.187C8.83649 14.5826 9.19132 14.0466 9.6815 13.6545L21.125 4.50004Z" stroke="#5E3BEE" stroke-width="2" stroke-linecap="round" stroke-linejoin="round"/>
</svg>
