<svg width="42" height="43" viewBox="0 0 42 43" fill="none" xmlns="http://www.w3.org/2000/svg">
<circle cx="15" cy="28" r="15" fill="#F1F0FB"/>
<path d="M37.8855 16.443C38.5965 17.373 38.5965 18.6285 37.8855 19.557C35.646 22.4805 30.273 28.5 24 28.5C17.727 28.5 12.354 22.4805 10.1145 19.557C9.76859 19.1117 9.58081 18.5639 9.58081 18C9.58081 17.4361 9.76859 16.8883 10.1145 16.443C12.354 13.5195 17.727 7.5 24 7.5C30.273 7.5 35.646 13.5195 37.8855 16.443V16.443Z" stroke="#5E3BEE" stroke-width="2" stroke-linecap="round" stroke-linejoin="round"/>
<path d="M24 22.5C26.4853 22.5 28.5 20.4853 28.5 18C28.5 15.5147 26.4853 13.5 24 13.5C21.5147 13.5 19.5 15.5147 19.5 18C19.5 20.4853 21.5147 22.5 24 22.5Z" stroke="#5E3BEE" stroke-width="2" stroke-linecap="round" stroke-linejoin="round"/>
</svg>
